# xmcd
#
# Track frame offsets: 
#        150
#        15150
#        28329
#        40122
#        55847
#        70257
#        85225
#        99122
#        112547
#        130415
#        141032
#        157047
#        170539
#        181420
#
# Disc length: 2578 seconds
#
# Revision: 0
# Processed by: cddbd v1.5.2PL0 Copyright (c) Steve Scherf et al.
# Submitted via: ExactAudioCopyFreeDBPlugin 1.0
#
DISCID=ab0a100e
DTITLE=潘安邦 - 外婆的澎湖灣
DYEAR=2015
DGENRE=國語歌曲
TTITLE0=盼
TTITLE1=紛紛飄墜的音符
TTITLE2=想你
TTITLE3=問於七夕
TTITLE4=驚奇
TTITLE5=思念總在分手後
TTITLE6=外婆的澎湖灣
TTITLE7=給妳．女孩
TTITLE8=憶兒時
TTITLE9=細數朵朵雲
TTITLE10=春天．春天
TTITLE11=乘風歸去
TTITLE12=細數朵朵雲
TTITLE13=露水
EXTD=
EXTT0=
EXTT1=
EXTT2=
EXTT3=
EXTT4=
EXTT5=
EXTT6=
EXTT7=
EXTT8=
EXTT9=
EXTT10=
EXTT11=
EXTT12=
EXTT13=
PLAYORDER=
